<svg width="38" height="38" viewBox="0 0 38 38" fill="none" xmlns="http://www.w3.org/2000/svg">
<g clip-path="url(#clip0_121_20)">
<path d="M26.0997 18.9619L35.8387 10.5006V27.3267L26.0997 18.9619ZM13.5502 20.3948L16.9702 23.3636C17.5069 23.8196 18.2067 24.0951 18.9715 24.0951H18.9984H19.019C19.7853 24.0951 20.4852 23.818 21.0282 23.3588L21.0235 23.362L24.4435 20.3933L34.8397 29.3217H3.15875L13.5502 20.3948ZM3.1445 8.4945H34.8587L19.6254 21.7248C19.4541 21.8603 19.2421 21.934 19.0238 21.9338H19.0016H18.981C18.7618 21.9341 18.5491 21.8599 18.3778 21.7233L18.3793 21.7248L3.1445 8.4945ZM2.16125 10.499L11.8987 18.9603L2.16125 27.3203V10.499ZM36.3612 6.63409C35.9812 6.44409 35.5347 6.33325 35.0613 6.33325H2.94342C2.4845 6.33336 2.0319 6.44014 1.62133 6.64517L1.63875 6.63725C1.14724 6.87968 0.733317 7.25472 0.443736 7.72001C0.154154 8.1853 0.000454968 8.72229 0 9.27034L0 28.5427C0.000838223 29.3226 0.31105 30.0704 0.862569 30.6219C1.41409 31.1735 2.16187 31.4837 2.94183 31.4845H35.0566C35.8365 31.4837 36.5843 31.1735 37.1358 30.6219C37.6874 30.0704 37.9976 29.3226 37.9984 28.5427V9.27034C37.9984 8.11925 37.335 7.12175 36.3692 6.642L36.3517 6.63409H36.3612Z" fill="black"/>
</g>
<defs>
<clipPath id="clip0_121_20">
<rect width="38" height="38" fill="white"/>
</clipPath>
</defs>
</svg>
