<svg width="38" height="38" viewBox="0 0 38 38" fill="none" xmlns="http://www.w3.org/2000/svg">
<path d="M12.3503 3.16675H25.6503C30.717 3.16675 34.8337 7.28341 34.8337 12.3501V25.6501C34.8337 28.0857 33.8661 30.4215 32.1439 32.1437C30.4217 33.8659 28.0859 34.8334 25.6503 34.8334H12.3503C7.28366 34.8334 3.16699 30.7167 3.16699 25.6501V12.3501C3.16699 9.91451 4.13452 7.57869 5.85673 5.85648C7.57894 4.13428 9.91475 3.16675 12.3503 3.16675ZM12.0337 6.33341C10.5219 6.33341 9.07211 6.93395 8.00315 8.00291C6.93419 9.07186 6.33366 10.5217 6.33366 12.0334V25.9667C6.33366 29.1176 8.88282 31.6667 12.0337 31.6667H25.967C27.4787 31.6667 28.9285 31.0662 29.9975 29.9973C31.0665 28.9283 31.667 27.4785 31.667 25.9667V12.0334C31.667 8.88258 29.1178 6.33341 25.967 6.33341H12.0337ZM27.3128 8.70841C27.8377 8.70841 28.3411 8.91693 28.7123 9.2881C29.0835 9.65926 29.292 10.1627 29.292 10.6876C29.292 11.2125 29.0835 11.7159 28.7123 12.0871C28.3411 12.4582 27.8377 12.6667 27.3128 12.6667C26.7879 12.6667 26.2845 12.4582 25.9133 12.0871C25.5422 11.7159 25.3337 11.2125 25.3337 10.6876C25.3337 10.1627 25.5422 9.65926 25.9133 9.2881C26.2845 8.91693 26.7879 8.70841 27.3128 8.70841ZM19.0003 11.0834C21.1 11.0834 23.1136 11.9175 24.5983 13.4022C26.0829 14.8868 26.917 16.9004 26.917 19.0001C26.917 21.0997 26.0829 23.1133 24.5983 24.598C23.1136 26.0827 21.1 26.9167 19.0003 26.9167C16.9007 26.9167 14.8871 26.0827 13.4024 24.598C11.9177 23.1133 11.0837 21.0997 11.0837 19.0001C11.0837 16.9004 11.9177 14.8868 13.4024 13.4022C14.8871 11.9175 16.9007 11.0834 19.0003 11.0834ZM19.0003 14.2501C17.7405 14.2501 16.5324 14.7505 15.6416 15.6413C14.7508 16.5321 14.2503 17.7403 14.2503 19.0001C14.2503 20.2599 14.7508 21.468 15.6416 22.3588C16.5324 23.2496 17.7405 23.7501 19.0003 23.7501C20.2601 23.7501 21.4683 23.2496 22.3591 22.3588C23.2499 21.468 23.7503 20.2599 23.7503 19.0001C23.7503 17.7403 23.2499 16.5321 22.3591 15.6413C21.4683 14.7505 20.2601 14.2501 19.0003 14.2501Z" fill="black"/>
</svg>
